<?xml version="1.0" encoding="utf-8"?>
<!-- Generator: Adobe Illustrator 23.1.0, SVG Export Plug-In . SVG Version: 6.00 Build 0)  -->
<svg version="1.1" id="Layer_1" xmlns="http://www.w3.org/2000/svg" xmlns:xlink="http://www.w3.org/1999/xlink" x="0px" y="0px"
	 viewBox="0 0 512 512" style="enable-background:new 0 0 512 512;" xml:space="preserve">
<style type="text/css">
	.st0{fill:#263238;}
	.st1{fill:#37474F;}
	.st2{fill:#E7AD27;}
	.st3{fill:#FEDE3A;}
	.st4{fill:#F7CB15;}
	.st5{fill:#E65100;}
	.st6{fill:#9B2F00;}
</style>
<g>
	<circle class="st0" cx="256" cy="256" r="240"/>
	<circle class="st1" cx="256" cy="256" r="205"/>
	<path class="st0" d="M357.5,381.8h-203c-2.5,0-4.5-2-4.5-4.5v-203c0-2.5,2-4.5,4.5-4.5h203c2.5,0,4.5,2,4.5,4.5v203
		C362,379.8,360,381.8,357.5,381.8z"/>
	<path class="st2" d="M357.5,366h-203c-2.5,0-4.5-2-4.5-4.5v-203c0-2.5,2-4.5,4.5-4.5h203c2.5,0,4.5,2,4.5,4.5v203
		C362,364,360,366,357.5,366z"/>
	<path class="st3" d="M357.5,343.5h-203c-2.5,0-4.5-2-4.5-4.5V136c0-2.5,2-4.5,4.5-4.5h203c2.5,0,4.5,2,4.5,4.5v203
		C362,341.5,360,343.5,357.5,343.5z"/>
	<path class="st4" d="M335.9,321.9H176.1c-2.5,0-4.5-2-4.5-4.5V157.7c0-2.5,2-4.5,4.5-4.5h159.7c2.5,0,4.5,2,4.5,4.5v159.7
		C340.4,319.9,338.4,321.9,335.9,321.9z"/>
	<path class="st2" d="M219.9,252.3l22.8-22.7c1.6-1.6,2.1-4,1.2-6.1c-0.9-2.1-2.9-3.5-5.2-3.5h-8.7c-1.5,0-2.9,0.6-3.9,1.6
		l-20.8,20.4v-42.5c0-3.1-2.5-5.6-5.6-5.6h-6.9c-3.1,0-5.6,2.5-5.6,5.6v88.4c0,3.1,2.5,5.6,5.6,5.6h6.9c3.1,0,5.6-2.5,5.6-5.6v-21.4
		l1.7-1.7l21.3,26.6c1.1,1.3,2.7,2.1,4.4,2.1h8.2c2.2,0,4.1-1.2,5.1-3.2c0.9-1.9,0.7-4.3-0.7-5.9L219.9,252.3z"/>
	<path class="st2" d="M319,248c-1.3-1.7-2.8-3.1-4.4-4.4c0.9-0.9,1.7-1.8,2.5-2.9c3.1-4.2,4.6-9.1,4.6-14.6c0-9-3.1-16-9.1-20.8
		c-5.6-4.5-13.7-6.8-23.9-6.8H264c-3.1,0-5.6,2.5-5.6,5.6v83.8c0,3.1,2.5,5.6,5.6,5.6h28c9.9,0,17.8-2.6,23.6-7.6
		c6-5.3,9.1-12.5,9.1-21.6C324.7,258.2,322.8,252.7,319,248L319,248z M300.5,233.2c-2.2,1.8-5.7,2.8-10.1,2.9h-13.7v-20.3h12
		c5.4,0,9.5,0.9,11.8,2.7c1.2,0.9,2.8,2.7,2.8,7.4C303.4,230.4,301.8,232.2,300.5,233.2L300.5,233.2z M276.7,253.3h16.2
		c4.5,0,8,1,10.3,3.1c2.2,1.9,3.2,4.5,3.2,8.1c0,3.9-1.1,6.6-3.4,8.6c-2.5,2.2-6,3.2-10.7,3.2h-15.6L276.7,253.3L276.7,253.3z"/>
	<path class="st5" d="M219.9,245.6l22.8-22.7c1.6-1.6,2.1-4,1.2-6.1c-0.9-2.1-2.9-3.5-5.2-3.5h-8.7c-1.5,0-2.9,0.6-3.9,1.6
		l-20.8,20.4v-42.5c0-3.1-2.5-5.6-5.6-5.6h-6.9c-3.1,0-5.6,2.5-5.6,5.6v88.4c0,3.1,2.5,5.6,5.6,5.6h6.9c3.1,0,5.6-2.5,5.6-5.6v-21.4
		l1.7-1.7l21.3,26.6c1.1,1.3,2.7,2.1,4.4,2.1h8.2c2.2,0,4.1-1.2,5.1-3.2c0.9-1.9,0.7-4.3-0.7-5.9L219.9,245.6z"/>
	<path class="st5" d="M319,241.2c-1.3-1.7-2.8-3.1-4.4-4.4c0.9-0.9,1.7-1.8,2.5-2.9c3.1-4.2,4.6-9.1,4.6-14.6c0-9-3.1-16-9.1-20.8
		c-5.6-4.5-13.7-6.8-23.9-6.8H264c-3.1,0-5.6,2.5-5.6,5.6v83.8c0,3.1,2.5,5.6,5.6,5.6h28c9.9,0,17.8-2.6,23.6-7.6
		c6-5.3,9.1-12.5,9.1-21.6C324.7,251.4,322.8,245.9,319,241.2L319,241.2z M300.5,226.5c-2.2,1.8-5.7,2.8-10.1,2.9h-13.7V209h12
		c5.4,0,9.5,0.9,11.8,2.7c1.2,0.9,2.8,2.7,2.8,7.4C303.4,223.6,301.8,225.5,300.5,226.5L300.5,226.5z M276.7,246.6h16.2
		c4.5,0,8,1,10.3,3.1c2.2,1.9,3.2,4.5,3.2,8.1c0,3.9-1.1,6.6-3.4,8.6c-2.5,2.2-6,3.2-10.7,3.2h-15.6L276.7,246.6L276.7,246.6z"/>
	<g>
		<path class="st6" d="M219.4,245l0.5,0.6l22.8-22.7c1.6-1.6,2.1-4,1.2-6.1c-0.2-0.5-0.4-0.9-0.7-1.3c-0.2,0.2-0.3,0.5-0.5,0.7
			l-23,22.8C218.2,240.6,218,243.2,219.4,245L219.4,245z"/>
		<path class="st6" d="M241.1,280h-8.2c-1.7,0-3.3-0.8-4.4-2.1c-0.3-0.4-0.6-0.8-0.9-1.1c-0.9-1.2-1.9-2.3-2.8-3.5
			c-1.3-1.7-2.7-3.3-4-5c-1.5-1.9-3-3.7-4.5-5.6c-1.4-1.8-2.8-3.5-4.2-5.3c-1.1-1.3-2.2-2.7-3.3-4c-0.3-0.4-0.7-0.9-1-1.3
			c-0.3-0.4-0.8-0.8-1.3-0.6c-0.5,0.2-1,1-1,1.6v6.7l1.7-1.7l21.3,26.6c1.1,1.3,2.7,2.1,4.4,2.1h8.2c2.2,0,4.1-1.2,5.1-3.2
			c0.9-1.9,0.7-4.2-0.6-5.8C244.5,279.2,242.9,280,241.1,280L241.1,280z"/>
		<path class="st6" d="M199.8,280h-6.9c-3.1,0-5.6-2.5-5.6-5.6v6.7c0,3.1,2.5,5.6,5.6,5.6h6.9c3.1,0,5.6-2.5,5.6-5.6v-6.7
			C205.4,277.5,202.9,280,199.8,280z"/>
		<path class="st6" d="M300.5,204.9c-2.3-1.8-6.4-2.7-11.8-2.7h-7.5c-2.5,0-4.5,2-4.5,4.5v2.2h12c5.4,0,9.5,0.9,11.8,2.7
			c0.9,0.7,1.9,1.8,2.4,4c0.2-0.9,0.4-2,0.4-3.3C303.4,207.6,301.8,205.9,300.5,204.9z"/>
		<path class="st6" d="M303.2,242.9c-2.3-2.1-5.8-3.1-10.3-3.1h-11.7c-2.5,0-4.5,2-4.5,4.5v2.2h16.2c4.5,0,8,1,10.3,3.1
			c1.4,1.3,2.3,2.8,2.8,4.8c0.2-1.1,0.4-2.2,0.4-3.5C306.4,247.4,305.4,244.9,303.2,242.9L303.2,242.9z"/>
		<path class="st6" d="M315.6,272.4c-5.8,5.1-13.8,7.6-23.6,7.6h-28c-3.1,0-5.6-2.5-5.6-5.6v6.7c0,3.1,2.5,5.6,5.6,5.6h28
			c9.9,0,17.8-2.6,23.6-7.6c6-5.3,9.1-12.5,9.1-21.6c0-1.1-0.1-2.1-0.2-3.1C323.8,261.9,320.8,267.9,315.6,272.4L315.6,272.4z"/>
		<path class="st6" d="M317.1,227.2c-0.8,1-1.6,2-2.5,2.9c-2.7,3.6,0,6.7,0,6.7c0.9-0.9,1.7-1.8,2.5-2.9c0.2-0.3,0.4-0.6,0.6-1
			c0.7-1,1.2-2,1.7-3.1c0,0,0-0.1,0-0.1c0.5-1,0.9-2.1,1.2-3.2c0-0.1,0-0.1,0.1-0.2c0.3-1.1,0.6-2.2,0.7-3.3c0-0.1,0-0.2,0-0.2
			c0.2-1.2,0.2-2.4,0.2-3.6c0-1.2-0.1-2.4-0.2-3.6C321.1,220,319.6,223.9,317.1,227.2L317.1,227.2z"/>
	</g>
</g>
</svg>
