<?xml version="1.0" encoding="utf-8"?>
<!-- Generator: Adobe Illustrator 23.1.0, SVG Export Plug-In . SVG Version: 6.00 Build 0)  -->
<svg version="1.1" id="Layer_1" xmlns="http://www.w3.org/2000/svg" xmlns:xlink="http://www.w3.org/1999/xlink" x="0px" y="0px"
	 viewBox="0 0 577.9 585.7" style="enable-background:new 0 0 577.9 585.7;" xml:space="preserve">
<style type="text/css">
	.st0{fill:#263238;}
	.st1{opacity:0.2;}
	.st2{fill:none;stroke:#B0E9FF;stroke-miterlimit:10;}
	.st3{opacity:0.5;}
	.st4{fill:none;stroke:#B0E9FF;stroke-width:5;stroke-linecap:round;stroke-linejoin:round;stroke-miterlimit:10;}
</style>
<rect x="-12.8" y="-4.9" class="st0" width="599.6" height="599.6"/>
<g>
	<g class="st1">
		<polygon class="st2" points="338.9,156.8 328.4,138.7 318,156.8 307.5,175 328.5,175 349.4,175 		"/>
		<polygon class="st2" points="304.2,378.8 293.7,360.7 283.2,378.8 272.8,397 293.7,397 314.7,397 		"/>
		<polygon class="st2" points="424.6,447 414.1,428.8 403.6,447 393.1,465.2 414.1,465.2 435.1,465.2 		"/>
		<polygon class="st2" points="493.8,307.6 499.2,287.3 478.9,292.7 458.7,298.2 473.5,313 488.4,327.8 		"/>
		<polygon class="st2" points="148.8,72.3 154.3,52 134,57.5 113.8,62.9 128.6,77.7 143.4,92.5 		"/>
		<polygon class="st2" points="134.5,510.2 139.9,489.9 119.6,495.4 99.4,500.8 114.2,515.6 129.1,530.5 		"/>
		<polygon class="st2" points="515,94.9 533.2,84.4 515,73.9 496.8,63.5 496.9,84.4 496.9,105.4 		"/>
		<polygon class="st2" points="134,304.5 152.2,294 134,283.5 115.8,273 115.9,294 115.9,315 		"/>
		<path class="st2" d="M374.4,270.1c0,8.8-7.1,15.9-15.9,15.9c-8.8,0-15.9-7.1-15.9-15.9c0-8.8,7.1-15.9,15.9-15.9
			C367.3,254.2,374.4,261.3,374.4,270.1z"/>
		<path class="st2" d="M294,92.5c0,8.8-7.1,15.9-15.9,15.9c-8.8,0-15.9-7.1-15.9-15.9c0-8.8,7.1-15.9,15.9-15.9
			C286.8,76.6,294,83.8,294,92.5z"/>
		<path class="st2" d="M304.1,562.2c0,8.8-7.1,15.9-15.9,15.9c-8.8,0-15.9-7.1-15.9-15.9c0-8.8,7.1-15.9,15.9-15.9
			C297,546.3,304.1,553.4,304.1,562.2z"/>
		<path class="st2" d="M346.7,538.4c0-8.8,7.1-15.9,15.9-15.9c8.8,0,15.9,7.1,15.9,15.9"/>
		<path class="st2" d="M219.7,294c0-8.8,7.1-15.9,15.9-15.9s15.9,7.1,15.9,15.9"/>
		<path class="st2" d="M52.3,164.8c0-8.8,7.1-15.9,15.8-15.9c8.7,0,15.8,7.1,15.8,15.9"/>
		<path class="st2" d="M453.4,190.9c-8.8,0-15.9-7.1-15.9-15.8c0-8.7,7.1-15.8,15.9-15.8"/>
		<path class="st2" d="M70.2,562.1c-8.8,0-15.9-7.1-15.9-15.8c0-8.7,7.1-15.8,15.9-15.8"/>
		<path class="st2" d="M241,56c-8.8,0-15.9-7.1-15.9-15.8s7.1-15.8,15.9-15.8"/>
		<path class="st2" d="M78.2,394.7c0,8.8-7.1,15.9-15.9,15.9c-8.8,0-15.9-7.1-15.9-15.9s7.1-15.9,15.9-15.9
			C71,378.8,78.2,386,78.2,394.7z"/>
		<path class="st2" d="M568.9,412.9c0,8.8-7.1,15.9-15.9,15.9c-8.8,0-15.9-7.1-15.9-15.9c0-8.8,7.1-15.9,15.9-15.9
			C561.8,397,568.9,404.1,568.9,412.9z"/>
		<rect x="524.9" y="159.2" class="st2" width="31.7" height="31.7"/>
		<rect x="167" y="175" class="st2" width="31.7" height="31.7"/>
		<rect x="165.4" y="377.1" class="st2" width="31.7" height="31.7"/>
		<rect x="524.9" y="530.5" class="st2" width="31.7" height="31.7"/>
		<rect x="393.6" y="24.4" class="st2" width="31.7" height="31.7"/>
		<path class="st2" d="M348.1,346.2c-6.9,0-5.7-12.3-14.5-12.3"/>
		<path class="st2" d="M377.1,346.2c-6.9,0-5.7-12.3-14.5-12.3"/>
		<path class="st2" d="M348.1,346.2c6.9,0,5.7-12.3,14.5-12.3"/>
		<path class="st2" d="M377.1,346.2c6.9,0,5.7-12.3,14.5-12.3"/>
		<path class="st2" d="M430.9,574.5c-6.9,0-5.7-12.3-14.5-12.3"/>
		<path class="st2" d="M460,574.5c-6.9,0-5.7-12.3-14.5-12.3"/>
		<path class="st2" d="M430.9,574.5c6.9,0,5.7-12.3,14.5-12.3"/>
		<path class="st2" d="M460,574.5c6.9,0,5.7-12.3,14.5-12.3"/>
		<path class="st2" d="M470.5,245.4c-6.9,0-5.7-12.3-14.5-12.3"/>
		<path class="st2" d="M499.6,245.4c-6.9,0-5.7-12.3-14.5-12.3"/>
		<path class="st2" d="M470.5,245.4c6.9,0,5.7-12.3,14.5-12.3"/>
		<path class="st2" d="M499.6,245.4c6.9,0,5.7-12.3,14.5-12.3"/>
		<path class="st2" d="M66.2,230.6c-6.9,0-5.7-12.3-14.5-12.3"/>
		<path class="st2" d="M95.3,230.6c-6.9,0-5.7-12.3-14.5-12.3"/>
		<path class="st2" d="M66.2,230.6c6.9,0,5.7-12.3,14.5-12.3"/>
		<path class="st2" d="M95.3,230.6c6.9,0,5.7-12.3,14.5-12.3"/>
		<path class="st2" d="M350.5,66.5c0,6.9-12.3,5.7-12.3,14.5"/>
		<path class="st2" d="M350.5,37.5c0,6.9-12.3,5.7-12.3,14.5"/>
		<path class="st2" d="M350.5,66.5c0-6.9-12.3-5.7-12.3-14.5"/>
		<path class="st2" d="M350.5,37.5c0-6.9-12.3-5.7-12.3-14.5"/>
		<path class="st2" d="M261.3,218.6c0,6.9-12.3,5.7-12.3,14.5"/>
		<path class="st2" d="M261.3,189.5c0,6.9-12.3,5.7-12.3,14.5"/>
		<path class="st2" d="M261.3,218.6c0-6.9-12.3-5.7-12.3-14.5"/>
		<path class="st2" d="M261.3,189.5c0-6.9-12.3-5.7-12.3-14.5"/>
		<path class="st2" d="M503,461.5c0,6.9-12.3,5.7-12.3,14.5"/>
		<path class="st2" d="M503,432.5c0,6.9-12.3,5.7-12.3,14.5"/>
		<path class="st2" d="M503,461.5c0-6.9-12.3-5.7-12.3-14.5"/>
		<path class="st2" d="M503,432.5c0-6.9-12.3-5.7-12.3-14.5"/>
		<path class="st2" d="M203.2,484.5c0,6.9-12.3,5.7-12.3,14.5"/>
		<path class="st2" d="M203.2,455.4c0,6.9-12.3,5.7-12.3,14.5"/>
		<path class="st2" d="M203.2,484.5c0-6.9-12.3-5.7-12.3-14.5"/>
		<path class="st2" d="M203.2,455.4c0-6.9-12.3-5.7-12.3-14.5"/>
		<line class="st2" x1="382.9" y1="378.8" x2="418.8" y2="378.8"/>
		<line class="st2" x1="30.3" y1="275.2" x2="66.1" y2="275.2"/>
		<line class="st2" x1="385.6" y1="108.5" x2="421.5" y2="108.5"/>
		<line class="st2" x1="527" y1="27.5" x2="562.8" y2="27.5"/>
		<line class="st2" x1="173.3" y1="562.1" x2="209.1" y2="562.1"/>
		<line class="st2" x1="265.4" y1="492.8" x2="290.7" y2="467.5"/>
		<line class="st2" x1="55.4" y1="52.9" x2="80.8" y2="27.5"/>
		<line class="st2" x1="544.9" y1="312.9" x2="570.3" y2="287.5"/>
	</g>
	<g class="st3">
		<line class="st4" x1="202.8" y1="120.6" x2="187.5" y2="106.3"/>
		<line class="st4" x1="188" y1="121" x2="202.3" y2="105.8"/>
		<line class="st4" x1="220.3" y1="340" x2="205" y2="325.7"/>
		<line class="st4" x1="205.5" y1="340.5" x2="219.8" y2="325.2"/>
		<line class="st4" x1="34.7" y1="462.6" x2="19.5" y2="448.3"/>
		<line class="st4" x1="19.9" y1="463.1" x2="34.2" y2="447.8"/>
		<line class="st4" x1="28" y1="99.7" x2="12.8" y2="85.4"/>
		<line class="st4" x1="13.3" y1="100.2" x2="27.6" y2="84.9"/>
		<line class="st4" x1="570.5" y1="120.2" x2="555.2" y2="105.9"/>
		<line class="st4" x1="555.7" y1="120.7" x2="570" y2="105.4"/>
		<line class="st4" x1="390.5" y1="198" x2="375.3" y2="183.7"/>
		<line class="st4" x1="375.7" y1="198.5" x2="390.1" y2="183.2"/>
		<line class="st4" x1="464.9" y1="367.8" x2="449.6" y2="353.5"/>
		<line class="st4" x1="450.1" y1="368.3" x2="464.4" y2="353"/>
		<line class="st4" x1="453" y1="506.1" x2="437.8" y2="491.8"/>
		<line class="st4" x1="438.3" y1="506.6" x2="452.6" y2="491.4"/>
		<polygon class="st4" points="316.1,143.5 305.6,125.3 295.1,143.5 284.7,161.6 305.6,161.6 326.6,161.6 		"/>
		<polygon class="st4" points="281.4,365.5 270.9,347.3 260.4,365.5 249.9,383.7 270.9,383.6 291.9,383.6 		"/>
		<polygon class="st4" points="401.7,433.6 391.2,415.5 380.8,433.6 370.3,451.8 391.3,451.8 412.2,451.8 		"/>
		<polygon class="st4" points="471,294.2 476.4,273.9 456.1,279.4 435.9,284.8 450.7,299.6 465.5,314.5 		"/>
		<polygon class="st4" points="126,58.9 131.4,38.7 111.2,44.1 90.9,49.5 105.8,64.4 120.6,79.2 		"/>
		<polygon class="st4" points="111.7,496.8 117.1,476.6 96.8,482 76.6,487.5 91.4,502.3 106.3,517.1 		"/>
		<polygon class="st4" points="492.2,81.6 510.4,71.1 492.2,60.6 474,50.1 474,71.1 474.1,92.1 		"/>
		<polygon class="st4" points="111.2,291.1 129.4,280.6 111.2,270.1 93,259.7 93,280.6 93,301.6 		"/>
		<path class="st4" d="M351.6,256.8c0,8.8-7.1,15.9-15.9,15.9c-8.8,0-15.9-7.1-15.9-15.9c0-8.8,7.1-15.9,15.9-15.9
			C344.4,240.9,351.6,248,351.6,256.8z"/>
		<path class="st4" d="M271.2,79.2c0,8.8-7.1,15.9-15.9,15.9c-8.8,0-15.9-7.1-15.9-15.9c0-8.8,7.1-15.9,15.9-15.9
			C264,63.3,271.2,70.4,271.2,79.2z"/>
		<path class="st4" d="M281.3,548.8c0,8.8-7.1,15.9-15.9,15.9c-8.8,0-15.9-7.1-15.9-15.9c0-8.8,7.1-15.9,15.9-15.9
			C274.2,532.9,281.3,540,281.3,548.8z"/>
		<path class="st4" d="M323.9,525.1c0-8.8,7.1-15.9,15.9-15.9c8.8,0,15.9,7.1,15.9,15.9"/>
		<path class="st4" d="M196.9,280.6c0-8.8,7.1-15.9,15.9-15.9s15.9,7.1,15.9,15.9"/>
		<path class="st4" d="M29.4,151.4c0-8.8,7.1-15.9,15.8-15.9c8.7,0,15.8,7.1,15.8,15.9"/>
		<path class="st4" d="M430.6,177.5c-8.8,0-15.9-7.1-15.9-15.8c0-8.7,7.1-15.8,15.9-15.8"/>
		<path class="st4" d="M47.4,548.8c-8.8,0-15.9-7.1-15.9-15.8c0-8.7,7.1-15.8,15.9-15.8"/>
		<path class="st4" d="M218.1,42.7c-8.8,0-15.9-7.1-15.9-15.8c0-8.7,7.1-15.8,15.9-15.8"/>
		<path class="st4" d="M55.3,381.4c0,8.8-7.1,15.9-15.9,15.9s-15.9-7.1-15.9-15.9c0-8.8,7.1-15.9,15.9-15.9S55.3,372.6,55.3,381.4z"
			/>
		<path class="st4" d="M546.1,399.6c0,8.8-7.1,15.9-15.9,15.9c-8.8,0-15.9-7.1-15.9-15.9c0-8.8,7.1-15.9,15.9-15.9
			C538.9,383.7,546.1,390.8,546.1,399.6z"/>
		<rect x="502" y="145.8" class="st4" width="31.7" height="31.7"/>
		<rect x="144.2" y="161.6" class="st4" width="31.7" height="31.7"/>
		<rect x="142.6" y="363.7" class="st4" width="31.7" height="31.7"/>
		<rect x="502" y="517.1" class="st4" width="31.7" height="31.7"/>
		<rect x="370.7" y="11" class="st4" width="31.7" height="31.7"/>
		<path class="st4" d="M325.3,332.9c-6.9,0-5.7-12.3-14.5-12.3"/>
		<path class="st4" d="M354.3,332.9c-6.9,0-5.7-12.3-14.5-12.3"/>
		<path class="st4" d="M325.3,332.9c6.9,0,5.7-12.3,14.5-12.3"/>
		<path class="st4" d="M354.3,332.9c6.9,0,5.7-12.3,14.5-12.3"/>
		<path class="st4" d="M408.1,561.1c-6.9,0-5.7-12.3-14.5-12.3"/>
		<path class="st4" d="M437.1,561.1c-6.9,0-5.7-12.3-14.5-12.3"/>
		<path class="st4" d="M408.1,561.1c6.9,0,5.7-12.3,14.5-12.3"/>
		<path class="st4" d="M437.1,561.1c6.9,0,5.7-12.3,14.5-12.3"/>
		<path class="st4" d="M447.7,232c-6.9,0-5.7-12.3-14.5-12.3"/>
		<path class="st4" d="M476.8,232c-6.9,0-5.7-12.3-14.5-12.3"/>
		<path class="st4" d="M447.7,232c6.9,0,5.7-12.3,14.5-12.3"/>
		<path class="st4" d="M476.8,232c6.9,0,5.7-12.3,14.5-12.3"/>
		<path class="st4" d="M43.4,217.2c-6.9,0-5.7-12.3-14.5-12.3"/>
		<path class="st4" d="M72.5,217.2c-6.9,0-5.7-12.3-14.5-12.3"/>
		<path class="st4" d="M43.4,217.2c6.9,0,5.7-12.3,14.5-12.3"/>
		<path class="st4" d="M72.5,217.2c6.9,0,5.7-12.3,14.5-12.3"/>
		<path class="st4" d="M327.7,53.2c0,6.9-12.3,5.7-12.3,14.5"/>
		<path class="st4" d="M327.7,24.1c0,6.9-12.3,5.7-12.3,14.5"/>
		<path class="st4" d="M327.7,53.2c0-6.9-12.3-5.7-12.3-14.5"/>
		<path class="st4" d="M327.7,24.1c0-6.9-12.3-5.7-12.3-14.5"/>
		<path class="st4" d="M238.5,205.3c0,6.9-12.3,5.7-12.3,14.5"/>
		<path class="st4" d="M238.5,176.2c0,6.9-12.3,5.7-12.3,14.5"/>
		<path class="st4" d="M238.5,205.3c0-6.9-12.3-5.7-12.3-14.5"/>
		<path class="st4" d="M238.5,176.2c0-6.9-12.3-5.7-12.3-14.5"/>
		<path class="st4" d="M480.1,448.2c0,6.9-12.3,5.7-12.3,14.5"/>
		<path class="st4" d="M480.1,419.1c0,6.9-12.3,5.7-12.3,14.5"/>
		<path class="st4" d="M480.1,448.2c0-6.9-12.3-5.7-12.3-14.5"/>
		<path class="st4" d="M480.1,419.1c0-6.9-12.3-5.7-12.3-14.5"/>
		<path class="st4" d="M180.3,471.1c0,6.9-12.3,5.7-12.3,14.5"/>
		<path class="st4" d="M180.3,442c0,6.9-12.3,5.7-12.3,14.5"/>
		<path class="st4" d="M180.3,471.1c0-6.9-12.3-5.7-12.3-14.5"/>
		<path class="st4" d="M180.3,442c0-6.9-12.3-5.7-12.3-14.5"/>
		<line class="st4" x1="360.1" y1="365.5" x2="396" y2="365.5"/>
		<line class="st4" x1="7.5" y1="261.8" x2="43.3" y2="261.8"/>
		<line class="st4" x1="362.8" y1="95.1" x2="398.6" y2="95.1"/>
		<line class="st4" x1="504.2" y1="14.1" x2="540" y2="14.1"/>
		<line class="st4" x1="150.5" y1="548.8" x2="186.3" y2="548.8"/>
		<line class="st4" x1="242.6" y1="479.5" x2="267.9" y2="454.1"/>
		<line class="st4" x1="32.6" y1="39.5" x2="58" y2="14.1"/>
		<line class="st4" x1="522.1" y1="299.5" x2="547.5" y2="274.2"/>
		<path class="st4" d="M334,450.4c-2.9,1.8-6.8,1-8.6-2c-1.8-2.9-1-6.8,2-8.6c2.9-1.8,6.8-1,8.6,2C337.8,444.7,337,448.6,334,450.4z
			"/>
		<path class="st4" d="M284.7,278c-2.9,1.8-6.8,1-8.6-2c-1.8-2.9-1-6.8,2-8.6c2.9-1.8,6.8-1,8.6,2
			C288.5,272.3,287.6,276.1,284.7,278z"/>
		<path class="st4" d="M58.8,331c-2.9,1.8-6.8,1-8.6-2c-1.8-2.9-1-6.8,2-8.6c2.9-1.8,6.8-1,8.6,2C62.6,325.3,61.7,329.2,58.8,331z"
			/>
		<path class="st4" d="M123,133.7c-2.9,1.8-6.8,1-8.6-2c-1.8-2.9-1-6.8,2-8.6c2.9-1.8,6.8-1,8.6,2C126.8,128,125.9,131.9,123,133.7z
			"/>
		<path class="st4" d="M467.8,130.6c-2.9,1.8-6.8,1-8.6-2c-1.8-2.9-1-6.8,2-8.6c2.9-1.8,6.8-1,8.6,2
			C471.6,124.9,470.7,128.8,467.8,130.6z"/>
		<path class="st4" d="M556.3,353.9c-2.9,1.8-6.8,1-8.6-2c-1.8-2.9-1-6.8,2-8.6c2.9-1.8,6.8-1,8.6,2
			C560.1,348.2,559.2,352.1,556.3,353.9z"/>
	</g>
</g>
</svg>
